<?xml version="1.0" standalone="no"?>
<!DOCTYPE svg PUBLIC "-//W3C//DTD SVG 20010904//EN"
 "http://www.w3.org/TR/2001/REC-SVG-20010904/DTD/svg10.dtd">
<svg version="1.0" xmlns="http://www.w3.org/2000/svg"
 width="600.000000pt" height="600.000000pt" viewBox="0 0 600.000000 600.000000"
 preserveAspectRatio="xMidYMid meet">
<metadata>
Created by potrace 1.14, written by Peter Selinger 2001-2017
</metadata>
<g transform="translate(0.000000,600.000000) scale(0.100000,-0.100000)"
fill="#000000" stroke="none">
<path d="M2590 4517 c-39 -19 -49 -67 -48 -223 0 -154 -2 -163 -60 -226 -46
-50 -57 -66 -71 -109 -19 -58 -21 -78 -26 -213 -6 -176 14 -210 129 -221 31
-3 75 -12 98 -19 59 -17 122 -12 176 16 53 27 72 52 55 69 -9 9 -23 5 -60 -17
-33 -19 -62 -28 -93 -28 -64 0 -138 23 -156 48 -13 20 -12 21 18 32 22 7 36
21 45 43 12 30 12 33 -13 56 -15 14 -36 26 -48 27 -12 0 -25 2 -31 3 -5 2 -14
3 -19 4 -6 0 23 32 63 69 69 65 72 70 69 108 -3 34 -6 39 -28 39 -31 0 -51
-45 -33 -75 11 -16 7 -22 -25 -47 -20 -15 -50 -41 -66 -58 l-29 -30 7 74 c3
41 15 93 25 115 18 40 117 160 214 258 42 43 60 78 40 78 -12 0 -64 -35 -97
-64 -16 -14 -30 -26 -31 -26 0 0 -1 55 0 123 0 154 9 172 60 121 14 -14 42
-48 64 -77 60 -82 58 -81 199 -84 193 -5 193 -5 208 8 18 15 31 4 15 -14 -16
-20 -24 -99 -12 -117 14 -21 30 -3 53 62 23 66 75 143 105 157 19 9 26 6 47
-22 63 -82 91 -199 82 -336 -6 -82 -4 -105 14 -161 24 -74 27 -140 16 -325
-11 -172 -9 -255 10 -355 3 -14 7 -83 9 -155 3 -111 0 -143 -20 -221 -13 -50
-32 -111 -44 -137 -12 -25 -21 -49 -21 -52 0 -3 -16 -37 -34 -75 -19 -39 -32
-70 -29 -70 3 0 1 -6 -4 -12 -6 -7 -26 -56 -46 -108 -31 -83 -44 -122 -76
-239 -8 -28 -47 -50 -147 -87 -64 -23 -91 -24 -78 -2 14 22 18 77 17 225 0
113 -5 170 -18 218 -51 191 -173 133 -211 -101 -18 -112 -3 -288 31 -370 l13
-32 -61 -8 c-34 -4 -99 -8 -145 -9 -94 -2 -95 -1 -106 80 -24 164 -90 333
-163 410 -82 88 -158 86 -235 -7 l-27 -33 15 75 c8 41 16 87 19 102 3 15 9 37
14 50 5 13 9 28 10 33 3 22 44 151 50 160 4 6 13 28 20 50 14 40 43 105 165
357 64 133 73 173 37 166 -24 -5 -197 -357 -265 -541 -34 -91 -89 -288 -101
-360 -3 -18 -7 -43 -10 -57 -10 -52 -17 -158 -17 -247 0 -51 -1 -93 -3 -93 -2
0 -80 49 -174 110 -273 176 -366 213 -531 213 -77 0 -108 -5 -162 -25 -126
-47 -231 -125 -320 -238 -106 -134 -153 -310 -125 -465 21 -116 117 -235 222
-274 44 -17 72 -20 142 -17 136 6 211 38 531 225 207 120 336 184 430 210 l71
19 15 -23 c37 -56 132 -133 201 -164 93 -41 235 -57 317 -35 27 7 48 11 48 9
0 -2 26 10 58 25 61 31 104 67 141 118 l22 32 67 -68 c157 -161 330 -233 549
-227 192 4 320 54 438 170 83 82 117 136 143 231 49 177 8 394 -110 586 l-30
49 31 28 c17 15 46 41 63 57 152 138 401 330 533 409 138 83 295 148 385 160
65 9 205 5 205 -5 0 -1 11 -4 24 -6 40 -7 92 -54 113 -101 18 -42 23 -123 9
-148 -3 -5 -6 -12 -6 -15 -3 -16 -50 -100 -57 -100 -4 0 -8 -6 -8 -12 1 -18
47 39 71 87 11 22 22 69 25 105 4 55 1 72 -19 110 -76 145 -285 177 -537 83
-46 -17 -140 -64 -235 -117 -124 -69 -397 -281 -590 -458 -16 -16 -32 -28 -35
-28 -3 0 -23 25 -45 56 -22 31 -45 61 -50 67 -23 26 -85 116 -123 179 -124
203 -96 411 57 426 39 3 58 0 86 -17 20 -11 43 -21 51 -21 27 0 14 35 -23 60
-31 21 -48 25 -107 25 -64 0 -75 -3 -109 -30 -98 -78 -113 -240 -37 -400 34
-70 115 -195 196 -299 30 -37 54 -73 54 -80 0 -6 -28 -34 -63 -63 -34 -28 -71
-60 -82 -70 -82 -74 -322 -241 -414 -288 l-53 -26 7 33 c10 51 71 211 130 343
52 116 70 159 75 180 2 6 11 33 20 61 10 27 21 70 25 95 4 24 9 53 12 64 5 25
4 183 -1 211 -19 98 -22 218 -14 574 2 102 -1 135 -17 180 -15 44 -19 77 -16
172 3 135 -19 238 -70 326 -40 71 -68 88 -118 73 -34 -10 -101 -71 -101 -92 0
-11 -41 -12 -241 -6 -64 2 -121 7 -127 11 -7 4 -37 39 -68 77 -47 59 -104 109
-124 109 -3 0 -16 -6 -30 -13z m-115 -901 c16 -6 21 -36 6 -36 -16 0 -51 51
-51 74 1 19 2 19 15 -5 8 -15 21 -29 30 -33z m421 -1084 c27 -18 41 -60 52
-165 8 -63 7 -68 -14 -82 -30 -19 -41 -74 -42 -199 0 -81 -3 -101 -17 -108
-17 -10 -53 -2 -42 9 3 3 0 20 -8 39 -42 102 -40 335 6 440 30 70 41 82 65 66z
m1023 -44 c94 -149 143 -300 142 -434 -1 -213 -124 -385 -331 -467 -82 -32
-140 -41 -261 -39 -198 2 -383 91 -521 250 -36 42 -45 58 -37 70 5 10 13 29
19 44 7 22 21 30 72 46 35 11 87 29 115 40 l53 22 -6 -53 c-8 -72 -11 -189 -6
-204 4 -14 41 -18 43 -5 1 4 2 39 4 77 3 75 11 155 20 195 4 17 19 31 48 45
83 39 183 99 264 157 107 76 247 188 251 199 2 5 7 9 12 9 4 0 25 16 46 35 45
41 54 43 73 13z m-1670 -54 c37 -22 93 -106 126 -188 33 -84 77 -284 64 -292
-9 -5 -33 -2 -117 13 -53 9 -131 32 -194 58 -53 21 -68 32 -69 49 -11 174 28
305 107 357 35 23 48 24 83 3z m-854 -79 c97 -17 167 -52 402 -201 88 -57 173
-109 187 -115 18 -9 31 -28 46 -72 11 -34 20 -66 20 -73 0 -6 -17 -15 -37 -19
-103 -19 -266 -96 -511 -242 -243 -145 -363 -195 -463 -195 -156 2 -270 97
-303 254 -35 170 35 362 186 511 73 72 203 143 281 153 23 4 44 8 46 10 4 4
95 -3 146 -11z m1561 -192 c-6 -81 -22 -172 -26 -148 -3 17 1 150 5 171 2 10
4 29 4 42 1 12 6 22 12 22 7 0 9 -28 5 -87z m-728 -225 c12 -2 22 -6 22 -10 0
-4 -10 -8 -22 -9 -23 -1 -37 -3 -90 -13 -22 -4 -29 0 -42 28 -9 19 -16 39 -16
44 0 6 28 -1 63 -14 34 -14 72 -25 85 -26z m662 -28 c0 -5 -4 -10 -10 -10 -5
0 -10 5 -10 10 0 6 5 10 10 10 6 0 10 -4 10 -10z m-53 -28 c12 -15 22 -32 23
-39 0 -23 -102 -123 -153 -148 -110 -53 -265 -51 -385 7 -62 29 -182 131 -182
154 0 14 107 31 214 33 96 2 106 -2 106 -51 0 -40 10 -58 31 -58 21 0 22 4 19
68 l-2 42 69 1 c64 0 186 8 190 13 1 1 12 2 25 3 14 1 31 -8 45 -25z"/>
<path d="M3314 4316 c-3 -8 -4 -43 -1 -78 7 -116 -25 -167 -98 -154 -38 8 -45
-2 -17 -27 41 -37 110 -20 148 38 24 37 30 150 11 198 -17 38 -34 48 -43 23z"/>
<path d="M2870 3947 c-29 -15 -57 -54 -66 -91 -6 -26 -5 -28 12 -21 10 4 28 7
39 5 49 -5 77 -1 93 14 14 12 30 14 68 10 35 -4 55 -1 69 9 25 19 20 24 -31
31 -22 2 -59 14 -81 26 -53 27 -75 31 -103 17z"/>
<path d="M2500 3469 c0 -64 205 -202 290 -194 8 1 23 3 33 3 9 1 17 8 17 16 0
15 -10 20 -70 31 -59 12 -131 55 -187 111 -57 57 -83 67 -83 33z"/>
</g>
</svg>
