<?xml version="1.0" standalone="no"?>
<!DOCTYPE svg PUBLIC "-//W3C//DTD SVG 20010904//EN"
 "http://www.w3.org/TR/2001/REC-SVG-20010904/DTD/svg10.dtd">
<svg version="1.0" xmlns="http://www.w3.org/2000/svg"
 width="600.000000pt" height="600.000000pt" viewBox="0 0 600.000000 600.000000"
 preserveAspectRatio="xMidYMid meet">
<metadata>
Created by potrace 1.14, written by Peter Selinger 2001-2017
</metadata>
<g transform="translate(0.000000,600.000000) scale(0.100000,-0.100000)"
fill="#000000" stroke="none">
<path d="M2583 4515 c-33 -23 -43 -76 -43 -228 0 -151 -5 -170 -60 -222 -67
-63 -89 -136 -95 -316 -6 -176 12 -210 121 -224 27 -3 79 -13 115 -21 77 -18
128 -9 192 32 66 43 42 81 -26 41 -62 -36 -96 -40 -168 -22 -98 26 -115 49
-54 78 30 14 35 21 35 52 0 33 -4 38 -42 55 -24 11 -52 20 -63 20 -15 0 -1 17
53 68 70 65 73 71 70 108 -3 34 -6 39 -28 39 -31 0 -51 -45 -33 -75 10 -16 7
-22 -25 -46 -20 -16 -50 -42 -66 -59 l-29 -30 6 72 c3 40 14 92 25 115 18 42
117 161 215 261 80 82 52 110 -33 31 l-48 -45 -7 77 c-8 80 -1 172 13 186 16
16 42 -4 96 -76 30 -40 62 -78 71 -86 22 -18 332 -25 352 -8 22 18 24 4 8 -36
-20 -47 -16 -100 7 -104 12 -2 22 13 38 63 22 65 69 138 103 159 25 16 47 -2
79 -65 46 -91 61 -170 54 -284 -5 -85 -3 -110 15 -165 20 -61 20 -79 14 -305
-5 -194 -3 -267 10 -385 30 -256 15 -342 -113 -640 -78 -181 -135 -338 -148
-405 -3 -19 -11 -39 -18 -44 -14 -12 -150 -67 -188 -76 l-27 -7 12 39 c15 49
13 345 -3 416 -32 135 -103 165 -164 68 -65 -103 -80 -352 -29 -502 l19 -57
-45 -6 c-25 -3 -89 -9 -143 -13 -112 -7 -107 -11 -128 107 -14 84 -56 224 -82
275 -55 109 -126 175 -188 175 -38 0 -91 -30 -119 -68 -19 -26 -20 -26 -21 -5
0 29 26 151 51 238 38 134 82 241 191 468 60 126 107 235 104 244 -12 31 -42
6 -76 -62 -91 -184 -181 -379 -213 -465 -81 -219 -127 -450 -127 -645 0 -63
-2 -115 -4 -115 -2 0 -73 45 -158 99 -261 168 -362 213 -508 227 -173 15 -375
-83 -503 -244 -70 -88 -84 -111 -113 -189 -110 -292 28 -574 289 -591 137 -8
246 35 579 229 216 126 329 181 426 208 l66 18 55 -59 c96 -104 179 -148 313
-167 155 -21 297 25 390 128 l52 58 66 -67 c71 -73 178 -148 258 -179 206 -81
476 -59 644 53 74 48 156 138 191 207 91 181 68 433 -59 653 -25 43 -42 82
-37 85 4 4 51 46 103 92 270 240 508 406 702 490 117 51 193 69 295 69 232 0
324 -142 218 -339 -30 -56 -32 -62 -10 -36 53 62 69 105 70 187 0 69 -3 80
-30 119 -107 153 -366 154 -652 4 -179 -94 -399 -253 -614 -442 -60 -54 -114
-98 -119 -98 -12 0 -162 204 -212 287 -62 105 -81 163 -82 248 0 81 13 117 57
159 37 34 104 39 159 12 55 -26 68 -26 68 -1 0 12 -16 28 -43 45 -97 56 -219
19 -268 -81 -20 -40 -24 -64 -23 -134 0 -135 46 -234 208 -450 48 -63 85 -120
84 -126 -4 -15 -132 -124 -258 -220 -116 -89 -224 -160 -302 -200 l-51 -26 7
34 c8 46 84 240 144 374 123 271 140 395 101 744 -8 80 -8 149 0 287 12 187
10 223 -16 306 -10 33 -16 97 -17 195 -2 125 -6 157 -25 210 -30 82 -79 154
-113 166 -38 13 -90 -13 -125 -62 -27 -37 -54 -47 -123 -43 -8 1 -69 2 -135 4
-67 2 -126 7 -133 11 -7 4 -37 39 -68 77 -52 65 -104 109 -129 109 -6 0 -20
-7 -32 -15z m-116 -891 c14 -12 23 -28 21 -35 -8 -24 -58 36 -57 68 1 20 3 23
6 8 2 -11 16 -30 30 -41z m455 -1130 c23 -54 38 -204 20 -204 -28 0 -46 -65
-50 -185 -4 -114 -10 -134 -37 -135 -16 0 -45 92 -57 185 -13 102 1 239 33
312 38 89 60 95 91 27z m1028 -59 c221 -388 95 -770 -287 -869 -81 -21 -265
-21 -347 0 -121 31 -220 88 -318 184 -83 81 -90 90 -84 116 16 63 29 77 91 94
33 9 83 26 110 37 l50 21 -3 -134 c-4 -130 -3 -134 17 -134 26 0 28 13 35 157
2 61 9 120 15 131 6 11 27 27 48 37 133 63 359 220 538 374 39 33 75 60 81 61
6 0 30 -34 54 -75z m-1680 -21 c24 -22 56 -69 80 -118 41 -82 90 -253 90 -315
l0 -33 -47 6 c-78 11 -173 36 -254 67 l-76 29 -7 46 c-15 115 41 291 107 333
45 29 61 26 107 -15z m-832 -70 c74 -19 170 -69 318 -165 71 -45 158 -100 193
-120 61 -36 64 -40 86 -104 15 -44 18 -68 11 -70 -6 -2 -44 -13 -84 -25 -118
-34 -286 -119 -520 -262 -101 -61 -238 -127 -299 -143 -169 -44 -312 14 -380
153 -26 53 -28 66 -28 177 0 112 2 125 31 191 42 96 135 217 207 271 155 113
291 142 465 97z m1518 -181 c-10 -140 -26 -169 -23 -43 2 96 9 130 24 130 3 0
3 -39 -1 -87z m-722 -232 c12 -5 -6 -10 -54 -17 l-73 -10 -13 33 c-8 18 -14
37 -14 42 0 8 45 -6 154 -48z m656 -21 c0 -5 -4 -10 -10 -10 -5 0 -10 5 -10
10 0 6 5 10 10 10 6 0 10 -4 10 -10z m-50 -35 l22 -35 -21 -28 c-33 -46 -100
-103 -150 -126 -39 -18 -64 -21 -171 -21 -122 0 -127 1 -194 34 -76 37 -197
144 -181 160 15 14 143 31 228 31 80 0 87 -5 87 -55 0 -36 10 -55 31 -55 16 0
19 8 19 55 l0 55 83 1 c45 1 107 4 137 9 30 4 63 8 72 9 9 0 26 -15 38 -34z"/>
<path d="M3314 4315 c-4 -9 -4 -41 0 -71 13 -110 -27 -173 -99 -160 -39 8 -45
-2 -15 -29 44 -39 118 -12 152 56 21 39 23 127 5 178 -13 39 -34 51 -43 26z"/>
<path d="M2842 3927 c-23 -24 -48 -84 -39 -93 3 -3 13 -1 23 4 11 6 27 7 42 1
28 -11 66 -3 83 17 9 11 24 13 59 8 50 -7 94 8 87 29 -2 7 -16 11 -30 9 -15
-2 -51 8 -81 22 -69 33 -115 34 -144 3z"/>
<path d="M2500 3469 c0 -30 92 -122 154 -152 96 -47 191 -57 184 -18 -2 10
-19 18 -46 23 -73 12 -150 54 -207 113 -57 58 -85 69 -85 34z"/>
</g>
</svg>
